<svg xmlns="http://www.w3.org/2000/svg" id="Calque_2" data-name="Calque 2" viewBox="0 0 845.02 491.87">
  <defs fill="#000000">
    <style>
      .cls-1 {
        fill: #ffffff;
        stroke-width: 0;
      }
    </style>
  </defs>
  <g id="Calque_1-2" data-name="Calque 1">
    <g>
      <path class="cls-1" d="m263.89,81.17c-.75.73-1.58,1.37-2.32,2.11-18.83,18.83-33.61,40.77-43.94,65.22-10.71,25.32-16.13,52.21-16.13,79.91h82.09c0-32.92,12.8-63.84,36.03-87.08,23.24-23.23,54.16-36.03,87.08-36.03V23.21c-27.7,0-54.58,5.43-79.91,16.12-20.42,8.63-38.95,20.55-55.52,35.15l-.14-.15c-2.44,2.15-4.88,4.29-7.23,6.57" fill="#000000"/>
      <path class="cls-1" d="m607.75,148.22c-5.03-11.91-11.16-23.19-18.26-33.84-1.82-2.73-3.86-5.3-5.8-7.94-6.07-8.21-12.58-16.13-19.89-23.44-18.83-18.83-40.77-33.61-65.22-43.94-25.32-10.71-52.21-16.13-79.91-16.13v82.1c32.92,0,63.84,12.79,87.08,36.02,23.23,23.24,36.03,54.16,36.03,87.08h82.09c0-27.7-5.43-54.58-16.12-79.91Z" fill="#000000"/>
      <path class="cls-1" d="m541.78,240.11c0,32.92-12.8,63.84-36.03,87.08-23.24,23.23-54.16,36.03-87.08,36.03v82.09c27.7,0,54.58-5.42,79.91-16.12,17.06-7.21,32.81-16.72,47.22-28.13,2.55-2.02,5.04-4.13,7.5-6.28,3.56-3.1,7.14-6.18,10.5-9.54,18.83-18.83,33.61-40.77,43.94-65.22,2.84-6.71,5.27-13.53,7.37-20.44.94-3.12,1.82-6.26,2.61-9.41,4.08-16.26,6.15-33,6.15-50.05h-82.09Z" fill="#000000"/>
      <path class="cls-1" d="m203.99,272.34c.51,3.27,1.09,6.53,1.76,9.77h.06c2.69,12.95,6.61,25.61,11.81,37.91,10.34,24.45,25.12,46.39,43.95,65.22,8.18,8.18,17.05,15.44,26.36,22.06,2.66,1.89,5.35,3.72,8.09,5.49,9.76,6.26,19.97,11.83,30.76,16.39,25.32,10.71,52.21,16.13,79.91,16.13v-82.1c-32.92,0-63.84-12.79-87.08-36.02-23.23-23.24-36.03-54.16-36.03-87.08h-82.09c0,10.79.85,21.46,2.49,31.96" fill="#000000"/>
      <g>
        <path class="cls-1" d="m217.2,68.98l82.29,56.83c1.79-2.73,3.71-5.36,5.62-7.99l-82.41-56.92c-1.53,2.89-3.32,5.62-5.49,8.08Z" fill="#000000"/>
        <path class="cls-1" d="m177.02,1.02c-22.4,5.02-36.49,27.24-31.47,49.64,5.02,22.4,27.25,36.48,49.65,31.46,8.9-2,16.4-6.78,22-13.14,2.17-2.46,3.96-5.19,5.49-8.08,4.47-8.44,6.22-18.37,3.97-28.42-5.02-22.4-27.25-36.48-49.64-31.46Z" fill="#000000"/>
        <path class="cls-1" d="m224.82,417.74c2.58,2.03,4.95,4.28,6.97,6.84l45.57-45.74c-2.46-2.15-4.85-4.36-7.2-6.62l-45.35,45.51Z" fill="#000000"/>
        <path class="cls-1" d="m231.79,424.58c-2.02-2.56-4.39-4.81-6.97-6.84-5.49-4.32-12.02-7.45-19.42-8.55-22.71-3.38-43.85,12.28-47.23,34.98-3.38,22.71,12.29,43.85,34.99,47.23,22.7,3.38,43.85-12.28,47.23-34.98,1.76-11.82-1.72-23.15-8.59-31.84Z" fill="#000000"/>
        <path class="cls-1" d="m123.41,240.12c.25,3.21.21,6.47-.05,9.77h116.88c-.67-3.24-1.25-6.5-1.76-9.77h-115.07Z" fill="#000000"/>
        <path class="cls-1" d="m70.24,183.89C36.49,179.18,5.31,202.72.6,236.47c-4.71,33.75,18.83,64.93,52.57,69.65,33.75,4.71,64.93-18.83,69.65-52.58.17-1.22.23-2.43.32-3.65.26-3.3.3-6.56.05-9.77-2.22-28.24-23.74-52.15-52.95-56.23Z" fill="#000000"/>
      </g>
      <g>
        <path class="cls-1" d="m627.82,68.98l-82.29,56.83c-1.79-2.73-3.71-5.36-5.62-7.99l82.41-56.92c1.53,2.89,3.32,5.62,5.49,8.08Z" fill="#000000"/>
        <path class="cls-1" d="m668,1.02c22.4,5.02,36.49,27.24,31.47,49.64-5.02,22.4-27.25,36.48-49.65,31.46-8.9-2-16.4-6.78-22-13.14-2.17-2.46-3.96-5.19-5.49-8.08-4.47-8.44-6.22-18.37-3.97-28.42,5.02-22.4,27.25-36.48,49.64-31.46Z" fill="#000000"/>
        <path class="cls-1" d="m620.2,417.74c-2.58,2.03-4.95,4.28-6.97,6.84l-45.57-45.74c2.46-2.15,4.85-4.36,7.2-6.62l45.35,45.51Z" fill="#000000"/>
        <path class="cls-1" d="m613.23,424.58c2.02-2.56,4.39-4.81,6.97-6.84,5.49-4.32,12.02-7.45,19.42-8.55,22.71-3.38,43.85,12.28,47.23,34.98,3.38,22.71-12.29,43.85-34.99,47.23-22.7,3.38-43.85-12.28-47.23-34.98-1.76-11.82,1.72-23.15,8.59-31.84Z" fill="#000000"/>
        <path class="cls-1" d="m721.61,240.12c-.25,3.21-.21,6.47.05,9.77h-116.88c.67-3.24,1.25-6.5,1.76-9.77h115.07Z" fill="#000000"/>
        <path class="cls-1" d="m774.78,183.89c33.75-4.71,64.93,18.83,69.64,52.58,4.71,33.75-18.83,64.93-52.57,69.65-33.75,4.71-64.93-18.83-69.65-52.58-.17-1.22-.23-2.43-.32-3.65-.26-3.3-.3-6.56-.05-9.77,2.22-28.24,23.74-52.15,52.95-56.23Z" fill="#000000"/>
      </g>
    </g>
  </g>
</svg>
